M48
;GenerationSoftware,Autodesk,EAGLE,9.5.1*%
;CreationDate,2019-11-08T05:34:53Z*%
FMAT,2
ICI,OFF
METRIC,TZ,000.000
T2C0.800
T1C1.016
%
G90
M71
T1
X84745Y6920
X54240Y30220
X96601Y19659
X96601Y14579
X50429Y36000
X54265Y6920
X47889Y36000
X45349Y36000
X89825Y6920
X87285Y6920
X42809Y36000
X82205Y6920
X79665Y6920
X77125Y6920
X74585Y6920
X72045Y6920
X69505Y6920
X66965Y6920
X64425Y6920
X61885Y6920
X59345Y6920
X56805Y6920
X96601Y17119
X89800Y30220
X87260Y30220
X84720Y30220
X82180Y30220
X79640Y30220
X77100Y30220
X74560Y30220
X72020Y30220
X69480Y30220
X66940Y30220
X64400Y30220
X61860Y30220
X59320Y30220
X56780Y30220
T2
X69080Y44050
X69080Y42050
X69080Y40050
X82381Y46000
X82381Y42000
X82381Y40000
X82381Y44000
X69080Y46050
M30