G04 EAGLE Gerber RS-274X export*
G75*
%MOMM*%
%FSLAX34Y34*%
%LPD*%
%INSilkscreen Top*%
%IPPOS*%
%AMOC8*
5,1,8,0,0,1.08239X$1,22.5*%
G01*
%ADD10C,0.127000*%
%ADD11C,0.254000*%
%ADD12C,0.101600*%
%ADD13C,0.152400*%


D10*
X700800Y480500D02*
X680800Y480500D01*
D11*
X675800Y380500D02*
X705800Y380500D01*
X712800Y480500D02*
X668800Y480500D01*
X668800Y462500D01*
X668800Y398500D02*
X668800Y380500D01*
X712800Y380500D01*
X712800Y480500D01*
X668800Y480500D02*
X662800Y480500D01*
X662800Y462500D01*
X668800Y462500D01*
X668800Y398500D01*
X662800Y398500D01*
X662800Y380500D01*
X668800Y380500D01*
D12*
X716708Y447164D02*
X722832Y447164D01*
X722913Y447162D01*
X722993Y447157D01*
X723074Y447147D01*
X723154Y447134D01*
X723233Y447118D01*
X723311Y447097D01*
X723388Y447073D01*
X723464Y447046D01*
X723539Y447015D01*
X723612Y446981D01*
X723684Y446943D01*
X723753Y446902D01*
X723821Y446858D01*
X723887Y446811D01*
X723950Y446760D01*
X724011Y446707D01*
X724069Y446651D01*
X724125Y446593D01*
X724178Y446532D01*
X724229Y446469D01*
X724276Y446403D01*
X724320Y446335D01*
X724361Y446266D01*
X724399Y446194D01*
X724433Y446121D01*
X724464Y446046D01*
X724491Y445970D01*
X724515Y445893D01*
X724536Y445815D01*
X724552Y445736D01*
X724565Y445656D01*
X724575Y445575D01*
X724580Y445495D01*
X724582Y445414D01*
X724582Y444539D01*
X718458Y451018D02*
X716708Y453205D01*
X724582Y453205D01*
X724582Y451018D02*
X724582Y455392D01*
D10*
X813810Y480000D02*
X833810Y480000D01*
D11*
X838810Y380000D02*
X808810Y380000D01*
X801810Y480000D02*
X845810Y480000D01*
X801810Y480000D02*
X801810Y462000D01*
X801810Y398000D02*
X801810Y380000D01*
X845810Y380000D01*
X845810Y480000D01*
X801810Y480000D02*
X795810Y480000D01*
X795810Y462000D01*
X801810Y462000D01*
X801810Y398000D01*
X795810Y398000D01*
X795810Y380000D01*
X801810Y380000D01*
D12*
X849718Y446664D02*
X855842Y446664D01*
X855923Y446662D01*
X856003Y446657D01*
X856084Y446647D01*
X856164Y446634D01*
X856243Y446618D01*
X856321Y446597D01*
X856398Y446573D01*
X856474Y446546D01*
X856549Y446515D01*
X856622Y446481D01*
X856694Y446443D01*
X856763Y446402D01*
X856831Y446358D01*
X856897Y446311D01*
X856960Y446260D01*
X857021Y446207D01*
X857079Y446151D01*
X857135Y446093D01*
X857188Y446032D01*
X857239Y445969D01*
X857286Y445903D01*
X857330Y445835D01*
X857371Y445766D01*
X857409Y445694D01*
X857443Y445621D01*
X857474Y445546D01*
X857501Y445470D01*
X857525Y445393D01*
X857546Y445315D01*
X857562Y445236D01*
X857575Y445156D01*
X857585Y445075D01*
X857590Y444995D01*
X857592Y444914D01*
X857592Y444039D01*
X849718Y452924D02*
X849720Y453010D01*
X849725Y453096D01*
X849735Y453181D01*
X849748Y453266D01*
X849765Y453350D01*
X849785Y453434D01*
X849809Y453516D01*
X849837Y453597D01*
X849868Y453678D01*
X849902Y453756D01*
X849940Y453833D01*
X849982Y453909D01*
X850026Y453982D01*
X850074Y454053D01*
X850125Y454123D01*
X850179Y454190D01*
X850235Y454254D01*
X850295Y454316D01*
X850357Y454376D01*
X850421Y454432D01*
X850488Y454486D01*
X850558Y454537D01*
X850629Y454585D01*
X850703Y454629D01*
X850778Y454671D01*
X850855Y454709D01*
X850933Y454743D01*
X851014Y454774D01*
X851095Y454802D01*
X851177Y454826D01*
X851261Y454846D01*
X851345Y454863D01*
X851430Y454876D01*
X851515Y454886D01*
X851601Y454891D01*
X851687Y454893D01*
X849718Y452924D02*
X849720Y452825D01*
X849726Y452725D01*
X849736Y452627D01*
X849749Y452528D01*
X849767Y452430D01*
X849788Y452333D01*
X849813Y452237D01*
X849842Y452142D01*
X849875Y452048D01*
X849911Y451955D01*
X849951Y451864D01*
X849994Y451775D01*
X850041Y451687D01*
X850091Y451602D01*
X850145Y451518D01*
X850202Y451436D01*
X850262Y451357D01*
X850325Y451280D01*
X850391Y451206D01*
X850460Y451135D01*
X850531Y451066D01*
X850606Y451000D01*
X850683Y450937D01*
X850762Y450877D01*
X850844Y450820D01*
X850927Y450767D01*
X851013Y450716D01*
X851101Y450670D01*
X851190Y450626D01*
X851281Y450587D01*
X851374Y450550D01*
X851468Y450518D01*
X853218Y454236D02*
X853154Y454300D01*
X853088Y454361D01*
X853019Y454419D01*
X852948Y454474D01*
X852875Y454527D01*
X852799Y454576D01*
X852722Y454621D01*
X852642Y454664D01*
X852561Y454703D01*
X852478Y454738D01*
X852394Y454770D01*
X852308Y454799D01*
X852222Y454823D01*
X852134Y454844D01*
X852046Y454861D01*
X851957Y454875D01*
X851867Y454884D01*
X851777Y454890D01*
X851687Y454892D01*
X853218Y454236D02*
X857592Y450518D01*
X857592Y454892D01*
D13*
X599800Y56500D02*
X587100Y56500D01*
X580750Y62850D01*
X580750Y75550D01*
X587100Y81900D01*
X580750Y62850D02*
X574400Y56500D01*
X561700Y56500D01*
X555350Y62850D01*
X555350Y75550D01*
X561700Y81900D01*
X574400Y81900D01*
X580750Y75550D01*
X625200Y56500D02*
X631550Y62850D01*
X625200Y56500D02*
X612500Y56500D01*
X606150Y62850D01*
X606150Y75550D01*
X612500Y81900D01*
X625200Y81900D01*
X631550Y75550D01*
X606150Y62850D02*
X599800Y56500D01*
X606150Y75550D02*
X599800Y81900D01*
X587100Y81900D01*
X663300Y56500D02*
X676000Y56500D01*
X663300Y56500D02*
X656950Y62850D01*
X656950Y75550D01*
X663300Y81900D01*
X656950Y62850D02*
X650600Y56500D01*
X637900Y56500D01*
X631550Y62850D01*
X631550Y75550D01*
X637900Y81900D01*
X650600Y81900D01*
X656950Y75550D01*
X701400Y56500D02*
X707750Y62850D01*
X701400Y56500D02*
X688700Y56500D01*
X682350Y62850D01*
X682350Y75550D01*
X688700Y81900D01*
X701400Y81900D01*
X707750Y75550D01*
X682350Y62850D02*
X676000Y56500D01*
X682350Y75550D02*
X676000Y81900D01*
X663300Y81900D01*
X739500Y56500D02*
X752200Y56500D01*
X739500Y56500D02*
X733150Y62850D01*
X733150Y75550D01*
X739500Y81900D01*
X733150Y62850D02*
X726800Y56500D01*
X714100Y56500D01*
X707750Y62850D01*
X707750Y75550D01*
X714100Y81900D01*
X726800Y81900D01*
X733150Y75550D01*
X777600Y56500D02*
X783950Y62850D01*
X777600Y56500D02*
X764900Y56500D01*
X758550Y62850D01*
X758550Y75550D01*
X764900Y81900D01*
X777600Y81900D01*
X783950Y75550D01*
X758550Y62850D02*
X752200Y56500D01*
X758550Y75550D02*
X752200Y81900D01*
X739500Y81900D01*
X815700Y56500D02*
X828400Y56500D01*
X815700Y56500D02*
X809350Y62850D01*
X809350Y75550D01*
X815700Y81900D01*
X809350Y62850D02*
X803000Y56500D01*
X790300Y56500D01*
X783950Y62850D01*
X783950Y75550D01*
X790300Y81900D01*
X803000Y81900D01*
X809350Y75550D01*
X853800Y56500D02*
X860150Y62850D01*
X853800Y56500D02*
X841100Y56500D01*
X834750Y62850D01*
X834750Y75550D01*
X841100Y81900D01*
X853800Y81900D01*
X860150Y75550D01*
X834750Y62850D02*
X828400Y56500D01*
X834750Y75550D02*
X828400Y81900D01*
X815700Y81900D01*
X891900Y56500D02*
X904600Y56500D01*
X891900Y56500D02*
X885550Y62850D01*
X885550Y75550D01*
X891900Y81900D01*
X885550Y62850D02*
X879200Y56500D01*
X866500Y56500D01*
X860150Y62850D01*
X860150Y75550D01*
X866500Y81900D01*
X879200Y81900D01*
X885550Y75550D01*
X910950Y75550D02*
X910950Y62850D01*
X904600Y56500D01*
X910950Y75550D02*
X904600Y81900D01*
X891900Y81900D01*
X555350Y62850D02*
X549000Y56500D01*
X536300Y56500D01*
X529950Y62850D01*
X529950Y75550D01*
X536300Y81900D01*
X549000Y81900D01*
X555350Y75550D01*
D10*
X887888Y50277D02*
X887888Y41387D01*
X887886Y41287D01*
X887880Y41188D01*
X887870Y41088D01*
X887857Y40990D01*
X887839Y40891D01*
X887818Y40794D01*
X887793Y40698D01*
X887764Y40602D01*
X887731Y40508D01*
X887695Y40415D01*
X887655Y40324D01*
X887611Y40234D01*
X887564Y40146D01*
X887514Y40060D01*
X887460Y39976D01*
X887403Y39894D01*
X887343Y39815D01*
X887279Y39737D01*
X887213Y39663D01*
X887144Y39591D01*
X887072Y39522D01*
X886998Y39456D01*
X886920Y39392D01*
X886841Y39332D01*
X886759Y39275D01*
X886675Y39221D01*
X886589Y39171D01*
X886501Y39124D01*
X886411Y39080D01*
X886320Y39040D01*
X886227Y39004D01*
X886133Y38971D01*
X886037Y38942D01*
X885941Y38917D01*
X885844Y38896D01*
X885745Y38878D01*
X885647Y38865D01*
X885547Y38855D01*
X885448Y38849D01*
X885348Y38847D01*
X884078Y38847D01*
X893869Y38847D02*
X893869Y50277D01*
X897044Y50277D01*
X897155Y50275D01*
X897265Y50269D01*
X897376Y50260D01*
X897486Y50246D01*
X897595Y50229D01*
X897704Y50208D01*
X897812Y50183D01*
X897919Y50154D01*
X898025Y50122D01*
X898130Y50086D01*
X898233Y50046D01*
X898335Y50003D01*
X898436Y49956D01*
X898535Y49905D01*
X898632Y49852D01*
X898726Y49795D01*
X898819Y49734D01*
X898910Y49671D01*
X898999Y49604D01*
X899085Y49534D01*
X899168Y49461D01*
X899250Y49386D01*
X899328Y49308D01*
X899403Y49226D01*
X899476Y49143D01*
X899546Y49057D01*
X899613Y48968D01*
X899676Y48877D01*
X899737Y48784D01*
X899794Y48689D01*
X899847Y48593D01*
X899898Y48494D01*
X899945Y48393D01*
X899988Y48291D01*
X900028Y48188D01*
X900064Y48083D01*
X900096Y47977D01*
X900125Y47870D01*
X900150Y47762D01*
X900171Y47653D01*
X900188Y47544D01*
X900202Y47434D01*
X900211Y47323D01*
X900217Y47213D01*
X900219Y47102D01*
X900217Y46991D01*
X900211Y46881D01*
X900202Y46770D01*
X900188Y46660D01*
X900171Y46551D01*
X900150Y46442D01*
X900125Y46334D01*
X900096Y46227D01*
X900064Y46121D01*
X900028Y46016D01*
X899988Y45913D01*
X899945Y45811D01*
X899898Y45710D01*
X899847Y45611D01*
X899794Y45514D01*
X899737Y45420D01*
X899676Y45327D01*
X899613Y45236D01*
X899546Y45147D01*
X899476Y45061D01*
X899403Y44978D01*
X899328Y44896D01*
X899250Y44818D01*
X899168Y44743D01*
X899085Y44670D01*
X898999Y44600D01*
X898910Y44533D01*
X898819Y44470D01*
X898726Y44409D01*
X898632Y44352D01*
X898535Y44299D01*
X898436Y44248D01*
X898335Y44201D01*
X898233Y44158D01*
X898130Y44118D01*
X898025Y44082D01*
X897919Y44050D01*
X897812Y44021D01*
X897704Y43996D01*
X897595Y43975D01*
X897486Y43958D01*
X897376Y43944D01*
X897265Y43935D01*
X897155Y43929D01*
X897044Y43927D01*
X893869Y43927D01*
X904727Y47737D02*
X907902Y50277D01*
X907902Y38847D01*
X904727Y38847D02*
X911077Y38847D01*
D13*
X599550Y289500D02*
X586850Y289500D01*
X580500Y295850D01*
X580500Y308550D01*
X586850Y314900D01*
X580500Y295850D02*
X574150Y289500D01*
X561450Y289500D01*
X555100Y295850D01*
X555100Y308550D01*
X561450Y314900D01*
X574150Y314900D01*
X580500Y308550D01*
X624950Y289500D02*
X631300Y295850D01*
X624950Y289500D02*
X612250Y289500D01*
X605900Y295850D01*
X605900Y308550D01*
X612250Y314900D01*
X624950Y314900D01*
X631300Y308550D01*
X605900Y295850D02*
X599550Y289500D01*
X605900Y308550D02*
X599550Y314900D01*
X586850Y314900D01*
X663050Y289500D02*
X675750Y289500D01*
X663050Y289500D02*
X656700Y295850D01*
X656700Y308550D01*
X663050Y314900D01*
X656700Y295850D02*
X650350Y289500D01*
X637650Y289500D01*
X631300Y295850D01*
X631300Y308550D01*
X637650Y314900D01*
X650350Y314900D01*
X656700Y308550D01*
X701150Y289500D02*
X707500Y295850D01*
X701150Y289500D02*
X688450Y289500D01*
X682100Y295850D01*
X682100Y308550D01*
X688450Y314900D01*
X701150Y314900D01*
X707500Y308550D01*
X682100Y295850D02*
X675750Y289500D01*
X682100Y308550D02*
X675750Y314900D01*
X663050Y314900D01*
X739250Y289500D02*
X751950Y289500D01*
X739250Y289500D02*
X732900Y295850D01*
X732900Y308550D01*
X739250Y314900D01*
X732900Y295850D02*
X726550Y289500D01*
X713850Y289500D01*
X707500Y295850D01*
X707500Y308550D01*
X713850Y314900D01*
X726550Y314900D01*
X732900Y308550D01*
X777350Y289500D02*
X783700Y295850D01*
X777350Y289500D02*
X764650Y289500D01*
X758300Y295850D01*
X758300Y308550D01*
X764650Y314900D01*
X777350Y314900D01*
X783700Y308550D01*
X758300Y295850D02*
X751950Y289500D01*
X758300Y308550D02*
X751950Y314900D01*
X739250Y314900D01*
X815450Y289500D02*
X828150Y289500D01*
X815450Y289500D02*
X809100Y295850D01*
X809100Y308550D01*
X815450Y314900D01*
X809100Y295850D02*
X802750Y289500D01*
X790050Y289500D01*
X783700Y295850D01*
X783700Y308550D01*
X790050Y314900D01*
X802750Y314900D01*
X809100Y308550D01*
X853550Y289500D02*
X859900Y295850D01*
X853550Y289500D02*
X840850Y289500D01*
X834500Y295850D01*
X834500Y308550D01*
X840850Y314900D01*
X853550Y314900D01*
X859900Y308550D01*
X834500Y295850D02*
X828150Y289500D01*
X834500Y308550D02*
X828150Y314900D01*
X815450Y314900D01*
X891650Y289500D02*
X904350Y289500D01*
X891650Y289500D02*
X885300Y295850D01*
X885300Y308550D01*
X891650Y314900D01*
X885300Y295850D02*
X878950Y289500D01*
X866250Y289500D01*
X859900Y295850D01*
X859900Y308550D01*
X866250Y314900D01*
X878950Y314900D01*
X885300Y308550D01*
X910700Y308550D02*
X910700Y295850D01*
X904350Y289500D01*
X910700Y308550D02*
X904350Y314900D01*
X891650Y314900D01*
X555100Y295850D02*
X548750Y289500D01*
X536050Y289500D01*
X529700Y295850D01*
X529700Y308550D01*
X536050Y314900D01*
X548750Y314900D01*
X555100Y308550D01*
D10*
X887638Y283277D02*
X887638Y274387D01*
X887636Y274287D01*
X887630Y274188D01*
X887620Y274088D01*
X887607Y273990D01*
X887589Y273891D01*
X887568Y273794D01*
X887543Y273698D01*
X887514Y273602D01*
X887481Y273508D01*
X887445Y273415D01*
X887405Y273324D01*
X887361Y273234D01*
X887314Y273146D01*
X887264Y273060D01*
X887210Y272976D01*
X887153Y272894D01*
X887093Y272815D01*
X887029Y272737D01*
X886963Y272663D01*
X886894Y272591D01*
X886822Y272522D01*
X886748Y272456D01*
X886670Y272392D01*
X886591Y272332D01*
X886509Y272275D01*
X886425Y272221D01*
X886339Y272171D01*
X886251Y272124D01*
X886161Y272080D01*
X886070Y272040D01*
X885977Y272004D01*
X885883Y271971D01*
X885787Y271942D01*
X885691Y271917D01*
X885594Y271896D01*
X885495Y271878D01*
X885397Y271865D01*
X885297Y271855D01*
X885198Y271849D01*
X885098Y271847D01*
X883828Y271847D01*
X893619Y271847D02*
X893619Y283277D01*
X896794Y283277D01*
X896905Y283275D01*
X897015Y283269D01*
X897126Y283260D01*
X897236Y283246D01*
X897345Y283229D01*
X897454Y283208D01*
X897562Y283183D01*
X897669Y283154D01*
X897775Y283122D01*
X897880Y283086D01*
X897983Y283046D01*
X898085Y283003D01*
X898186Y282956D01*
X898285Y282905D01*
X898382Y282852D01*
X898476Y282795D01*
X898569Y282734D01*
X898660Y282671D01*
X898749Y282604D01*
X898835Y282534D01*
X898918Y282461D01*
X899000Y282386D01*
X899078Y282308D01*
X899153Y282226D01*
X899226Y282143D01*
X899296Y282057D01*
X899363Y281968D01*
X899426Y281877D01*
X899487Y281784D01*
X899544Y281689D01*
X899597Y281593D01*
X899648Y281494D01*
X899695Y281393D01*
X899738Y281291D01*
X899778Y281188D01*
X899814Y281083D01*
X899846Y280977D01*
X899875Y280870D01*
X899900Y280762D01*
X899921Y280653D01*
X899938Y280544D01*
X899952Y280434D01*
X899961Y280323D01*
X899967Y280213D01*
X899969Y280102D01*
X899967Y279991D01*
X899961Y279881D01*
X899952Y279770D01*
X899938Y279660D01*
X899921Y279551D01*
X899900Y279442D01*
X899875Y279334D01*
X899846Y279227D01*
X899814Y279121D01*
X899778Y279016D01*
X899738Y278913D01*
X899695Y278811D01*
X899648Y278710D01*
X899597Y278611D01*
X899544Y278514D01*
X899487Y278420D01*
X899426Y278327D01*
X899363Y278236D01*
X899296Y278147D01*
X899226Y278061D01*
X899153Y277978D01*
X899078Y277896D01*
X899000Y277818D01*
X898918Y277743D01*
X898835Y277670D01*
X898749Y277600D01*
X898660Y277533D01*
X898569Y277470D01*
X898476Y277409D01*
X898382Y277352D01*
X898285Y277299D01*
X898186Y277248D01*
X898085Y277201D01*
X897983Y277158D01*
X897880Y277118D01*
X897775Y277082D01*
X897669Y277050D01*
X897562Y277021D01*
X897454Y276996D01*
X897345Y276975D01*
X897236Y276958D01*
X897126Y276944D01*
X897015Y276935D01*
X896905Y276929D01*
X896794Y276927D01*
X893619Y276927D01*
X907970Y283278D02*
X908074Y283276D01*
X908179Y283270D01*
X908283Y283261D01*
X908386Y283248D01*
X908489Y283230D01*
X908591Y283210D01*
X908693Y283185D01*
X908793Y283157D01*
X908893Y283125D01*
X908991Y283089D01*
X909088Y283050D01*
X909183Y283008D01*
X909277Y282962D01*
X909369Y282912D01*
X909459Y282860D01*
X909547Y282804D01*
X909633Y282744D01*
X909717Y282682D01*
X909798Y282617D01*
X909877Y282549D01*
X909954Y282477D01*
X910027Y282404D01*
X910099Y282327D01*
X910167Y282248D01*
X910232Y282167D01*
X910294Y282083D01*
X910354Y281997D01*
X910410Y281909D01*
X910462Y281819D01*
X910512Y281727D01*
X910558Y281633D01*
X910600Y281538D01*
X910639Y281441D01*
X910675Y281343D01*
X910707Y281243D01*
X910735Y281143D01*
X910760Y281041D01*
X910780Y280939D01*
X910798Y280836D01*
X910811Y280733D01*
X910820Y280629D01*
X910826Y280524D01*
X910828Y280420D01*
X907970Y283277D02*
X907852Y283275D01*
X907733Y283269D01*
X907615Y283260D01*
X907498Y283247D01*
X907381Y283229D01*
X907264Y283209D01*
X907148Y283184D01*
X907033Y283156D01*
X906920Y283123D01*
X906807Y283088D01*
X906695Y283048D01*
X906585Y283006D01*
X906476Y282959D01*
X906368Y282909D01*
X906263Y282856D01*
X906159Y282799D01*
X906057Y282739D01*
X905957Y282676D01*
X905859Y282609D01*
X905763Y282540D01*
X905670Y282467D01*
X905579Y282391D01*
X905490Y282313D01*
X905404Y282231D01*
X905321Y282147D01*
X905240Y282061D01*
X905163Y281971D01*
X905088Y281880D01*
X905016Y281786D01*
X904947Y281689D01*
X904882Y281591D01*
X904819Y281490D01*
X904760Y281387D01*
X904704Y281283D01*
X904652Y281177D01*
X904603Y281069D01*
X904558Y280960D01*
X904516Y280849D01*
X904478Y280737D01*
X909875Y278198D02*
X909951Y278273D01*
X910026Y278352D01*
X910097Y278433D01*
X910166Y278517D01*
X910231Y278603D01*
X910293Y278691D01*
X910353Y278781D01*
X910409Y278873D01*
X910462Y278968D01*
X910511Y279064D01*
X910557Y279162D01*
X910600Y279261D01*
X910639Y279362D01*
X910674Y279464D01*
X910706Y279567D01*
X910734Y279671D01*
X910759Y279776D01*
X910780Y279883D01*
X910797Y279989D01*
X910810Y280096D01*
X910819Y280204D01*
X910825Y280312D01*
X910827Y280420D01*
X909875Y278197D02*
X904477Y271847D01*
X910827Y271847D01*
D13*
X978710Y202940D02*
X978710Y190240D01*
X972360Y183890D01*
X959660Y183890D01*
X953310Y190240D01*
X972360Y183890D02*
X978710Y177540D01*
X978710Y164840D01*
X972360Y158490D01*
X959660Y158490D01*
X953310Y164840D01*
X953310Y177540D01*
X959660Y183890D01*
X959660Y209290D02*
X972360Y209290D01*
X978710Y202940D01*
X959660Y209290D02*
X953310Y202940D01*
X953310Y190240D01*
X972360Y158490D02*
X978710Y152140D01*
X978710Y139440D01*
X972360Y133090D01*
X959660Y133090D01*
X953310Y139440D01*
X953310Y152140D01*
X959660Y158490D01*
D10*
X984933Y186228D02*
X993823Y186228D01*
X993923Y186226D01*
X994022Y186220D01*
X994122Y186210D01*
X994220Y186197D01*
X994319Y186179D01*
X994416Y186158D01*
X994512Y186133D01*
X994608Y186104D01*
X994702Y186071D01*
X994795Y186035D01*
X994886Y185995D01*
X994976Y185951D01*
X995064Y185904D01*
X995150Y185854D01*
X995234Y185800D01*
X995316Y185743D01*
X995395Y185683D01*
X995473Y185619D01*
X995547Y185553D01*
X995619Y185484D01*
X995688Y185412D01*
X995754Y185338D01*
X995818Y185260D01*
X995878Y185181D01*
X995935Y185099D01*
X995989Y185015D01*
X996039Y184929D01*
X996086Y184841D01*
X996130Y184751D01*
X996170Y184660D01*
X996206Y184567D01*
X996239Y184473D01*
X996268Y184377D01*
X996293Y184281D01*
X996314Y184184D01*
X996332Y184085D01*
X996345Y183987D01*
X996355Y183887D01*
X996361Y183788D01*
X996363Y183688D01*
X996363Y182418D01*
X996363Y192209D02*
X984933Y192209D01*
X984933Y195384D01*
X984935Y195495D01*
X984941Y195605D01*
X984950Y195716D01*
X984964Y195826D01*
X984981Y195935D01*
X985002Y196044D01*
X985027Y196152D01*
X985056Y196259D01*
X985088Y196365D01*
X985124Y196470D01*
X985164Y196573D01*
X985207Y196675D01*
X985254Y196776D01*
X985305Y196875D01*
X985358Y196972D01*
X985415Y197066D01*
X985476Y197159D01*
X985539Y197250D01*
X985606Y197339D01*
X985676Y197425D01*
X985749Y197508D01*
X985824Y197590D01*
X985902Y197668D01*
X985984Y197743D01*
X986067Y197816D01*
X986153Y197886D01*
X986242Y197953D01*
X986333Y198016D01*
X986426Y198077D01*
X986521Y198134D01*
X986617Y198187D01*
X986716Y198238D01*
X986817Y198285D01*
X986919Y198328D01*
X987022Y198368D01*
X987127Y198404D01*
X987233Y198436D01*
X987340Y198465D01*
X987448Y198490D01*
X987557Y198511D01*
X987666Y198528D01*
X987776Y198542D01*
X987887Y198551D01*
X987997Y198557D01*
X988108Y198559D01*
X988219Y198557D01*
X988329Y198551D01*
X988440Y198542D01*
X988550Y198528D01*
X988659Y198511D01*
X988768Y198490D01*
X988876Y198465D01*
X988983Y198436D01*
X989089Y198404D01*
X989194Y198368D01*
X989297Y198328D01*
X989399Y198285D01*
X989500Y198238D01*
X989599Y198187D01*
X989696Y198134D01*
X989790Y198077D01*
X989883Y198016D01*
X989974Y197953D01*
X990063Y197886D01*
X990149Y197816D01*
X990232Y197743D01*
X990314Y197668D01*
X990392Y197590D01*
X990467Y197508D01*
X990540Y197425D01*
X990610Y197339D01*
X990677Y197250D01*
X990740Y197159D01*
X990801Y197066D01*
X990858Y196972D01*
X990911Y196875D01*
X990962Y196776D01*
X991009Y196675D01*
X991052Y196573D01*
X991092Y196470D01*
X991128Y196365D01*
X991160Y196259D01*
X991189Y196152D01*
X991214Y196044D01*
X991235Y195935D01*
X991252Y195826D01*
X991266Y195716D01*
X991275Y195605D01*
X991281Y195495D01*
X991283Y195384D01*
X991283Y192209D01*
X996363Y203067D02*
X996363Y206242D01*
X996361Y206353D01*
X996355Y206463D01*
X996346Y206574D01*
X996332Y206684D01*
X996315Y206793D01*
X996294Y206902D01*
X996269Y207010D01*
X996240Y207117D01*
X996208Y207223D01*
X996172Y207328D01*
X996132Y207431D01*
X996089Y207533D01*
X996042Y207634D01*
X995991Y207733D01*
X995938Y207830D01*
X995881Y207924D01*
X995820Y208017D01*
X995757Y208108D01*
X995690Y208197D01*
X995620Y208283D01*
X995547Y208366D01*
X995472Y208448D01*
X995394Y208526D01*
X995312Y208601D01*
X995229Y208674D01*
X995143Y208744D01*
X995054Y208811D01*
X994963Y208874D01*
X994870Y208935D01*
X994776Y208992D01*
X994679Y209045D01*
X994580Y209096D01*
X994479Y209143D01*
X994377Y209186D01*
X994274Y209226D01*
X994169Y209262D01*
X994063Y209294D01*
X993956Y209323D01*
X993848Y209348D01*
X993739Y209369D01*
X993630Y209386D01*
X993520Y209400D01*
X993409Y209409D01*
X993299Y209415D01*
X993188Y209417D01*
X993077Y209415D01*
X992967Y209409D01*
X992856Y209400D01*
X992746Y209386D01*
X992637Y209369D01*
X992528Y209348D01*
X992420Y209323D01*
X992313Y209294D01*
X992207Y209262D01*
X992102Y209226D01*
X991999Y209186D01*
X991897Y209143D01*
X991796Y209096D01*
X991697Y209045D01*
X991601Y208992D01*
X991506Y208935D01*
X991413Y208874D01*
X991322Y208811D01*
X991233Y208744D01*
X991147Y208674D01*
X991064Y208601D01*
X990982Y208526D01*
X990904Y208448D01*
X990829Y208366D01*
X990756Y208283D01*
X990686Y208197D01*
X990619Y208108D01*
X990556Y208017D01*
X990495Y207924D01*
X990438Y207830D01*
X990385Y207733D01*
X990334Y207634D01*
X990287Y207533D01*
X990244Y207431D01*
X990204Y207328D01*
X990168Y207223D01*
X990136Y207117D01*
X990107Y207010D01*
X990082Y206902D01*
X990061Y206793D01*
X990044Y206684D01*
X990030Y206574D01*
X990021Y206463D01*
X990015Y206353D01*
X990013Y206242D01*
X984933Y206877D02*
X984933Y203067D01*
X984933Y206877D02*
X984935Y206977D01*
X984941Y207076D01*
X984951Y207176D01*
X984964Y207274D01*
X984982Y207373D01*
X985003Y207470D01*
X985028Y207566D01*
X985057Y207662D01*
X985090Y207756D01*
X985126Y207849D01*
X985166Y207940D01*
X985210Y208030D01*
X985257Y208118D01*
X985307Y208204D01*
X985361Y208288D01*
X985418Y208370D01*
X985478Y208449D01*
X985542Y208527D01*
X985608Y208601D01*
X985677Y208673D01*
X985749Y208742D01*
X985823Y208808D01*
X985901Y208872D01*
X985980Y208932D01*
X986062Y208989D01*
X986146Y209043D01*
X986232Y209093D01*
X986320Y209140D01*
X986410Y209184D01*
X986501Y209224D01*
X986594Y209260D01*
X986688Y209293D01*
X986784Y209322D01*
X986880Y209347D01*
X986977Y209368D01*
X987076Y209386D01*
X987174Y209399D01*
X987274Y209409D01*
X987373Y209415D01*
X987473Y209417D01*
X987573Y209415D01*
X987672Y209409D01*
X987772Y209399D01*
X987870Y209386D01*
X987969Y209368D01*
X988066Y209347D01*
X988162Y209322D01*
X988258Y209293D01*
X988352Y209260D01*
X988445Y209224D01*
X988536Y209184D01*
X988626Y209140D01*
X988714Y209093D01*
X988800Y209043D01*
X988884Y208989D01*
X988966Y208932D01*
X989045Y208872D01*
X989123Y208808D01*
X989197Y208742D01*
X989269Y208673D01*
X989338Y208601D01*
X989404Y208527D01*
X989468Y208449D01*
X989528Y208370D01*
X989585Y208288D01*
X989639Y208204D01*
X989689Y208118D01*
X989736Y208030D01*
X989780Y207940D01*
X989820Y207849D01*
X989856Y207756D01*
X989889Y207662D01*
X989918Y207566D01*
X989943Y207470D01*
X989964Y207373D01*
X989982Y207274D01*
X989995Y207176D01*
X990005Y207076D01*
X990011Y206977D01*
X990013Y206877D01*
X990013Y204337D01*
D13*
X466190Y353650D02*
X459840Y347300D01*
X447140Y347300D01*
X440790Y353650D01*
X440790Y366350D01*
X447140Y372700D01*
X459840Y372700D01*
X466190Y366350D01*
X497940Y347300D02*
X510640Y347300D01*
X497940Y347300D02*
X491590Y353650D01*
X491590Y366350D01*
X497940Y372700D01*
X491590Y353650D02*
X485240Y347300D01*
X472540Y347300D01*
X466190Y353650D01*
X466190Y366350D01*
X472540Y372700D01*
X485240Y372700D01*
X491590Y366350D01*
X516990Y366350D02*
X516990Y353650D01*
X510640Y347300D01*
X516990Y366350D02*
X510640Y372700D01*
X497940Y372700D01*
X434440Y347300D02*
X421740Y347300D01*
X415390Y353650D01*
X415390Y366350D01*
X421740Y372700D01*
X440790Y353650D02*
X434440Y347300D01*
X440790Y366350D02*
X434440Y372700D01*
X421740Y372700D01*
D10*
X493928Y341077D02*
X493928Y332187D01*
X493926Y332087D01*
X493920Y331988D01*
X493910Y331888D01*
X493897Y331790D01*
X493879Y331691D01*
X493858Y331594D01*
X493833Y331498D01*
X493804Y331402D01*
X493771Y331308D01*
X493735Y331215D01*
X493695Y331124D01*
X493651Y331034D01*
X493604Y330946D01*
X493554Y330860D01*
X493500Y330776D01*
X493443Y330694D01*
X493383Y330615D01*
X493319Y330537D01*
X493253Y330463D01*
X493184Y330391D01*
X493112Y330322D01*
X493038Y330256D01*
X492960Y330192D01*
X492881Y330132D01*
X492799Y330075D01*
X492715Y330021D01*
X492629Y329971D01*
X492541Y329924D01*
X492451Y329880D01*
X492360Y329840D01*
X492267Y329804D01*
X492173Y329771D01*
X492077Y329742D01*
X491981Y329717D01*
X491884Y329696D01*
X491785Y329678D01*
X491687Y329665D01*
X491587Y329655D01*
X491488Y329649D01*
X491388Y329647D01*
X490118Y329647D01*
X499909Y329647D02*
X499909Y341077D01*
X503084Y341077D01*
X503195Y341075D01*
X503305Y341069D01*
X503416Y341060D01*
X503526Y341046D01*
X503635Y341029D01*
X503744Y341008D01*
X503852Y340983D01*
X503959Y340954D01*
X504065Y340922D01*
X504170Y340886D01*
X504273Y340846D01*
X504375Y340803D01*
X504476Y340756D01*
X504575Y340705D01*
X504672Y340652D01*
X504766Y340595D01*
X504859Y340534D01*
X504950Y340471D01*
X505039Y340404D01*
X505125Y340334D01*
X505208Y340261D01*
X505290Y340186D01*
X505368Y340108D01*
X505443Y340026D01*
X505516Y339943D01*
X505586Y339857D01*
X505653Y339768D01*
X505716Y339677D01*
X505777Y339584D01*
X505834Y339489D01*
X505887Y339393D01*
X505938Y339294D01*
X505985Y339193D01*
X506028Y339091D01*
X506068Y338988D01*
X506104Y338883D01*
X506136Y338777D01*
X506165Y338670D01*
X506190Y338562D01*
X506211Y338453D01*
X506228Y338344D01*
X506242Y338234D01*
X506251Y338123D01*
X506257Y338013D01*
X506259Y337902D01*
X506257Y337791D01*
X506251Y337681D01*
X506242Y337570D01*
X506228Y337460D01*
X506211Y337351D01*
X506190Y337242D01*
X506165Y337134D01*
X506136Y337027D01*
X506104Y336921D01*
X506068Y336816D01*
X506028Y336713D01*
X505985Y336611D01*
X505938Y336510D01*
X505887Y336411D01*
X505834Y336314D01*
X505777Y336220D01*
X505716Y336127D01*
X505653Y336036D01*
X505586Y335947D01*
X505516Y335861D01*
X505443Y335778D01*
X505368Y335696D01*
X505290Y335618D01*
X505208Y335543D01*
X505125Y335470D01*
X505039Y335400D01*
X504950Y335333D01*
X504859Y335270D01*
X504766Y335209D01*
X504672Y335152D01*
X504575Y335099D01*
X504476Y335048D01*
X504375Y335001D01*
X504273Y334958D01*
X504170Y334918D01*
X504065Y334882D01*
X503959Y334850D01*
X503852Y334821D01*
X503744Y334796D01*
X503635Y334775D01*
X503526Y334758D01*
X503416Y334744D01*
X503305Y334735D01*
X503195Y334729D01*
X503084Y334727D01*
X499909Y334727D01*
X510767Y332187D02*
X513307Y341077D01*
X510767Y332187D02*
X517117Y332187D01*
X515212Y334727D02*
X515212Y329647D01*
M02*
